<svg width="91" height="91" xmlns="http://www.w3.org/2000/svg">

 <g>
  <title>background</title>
  <rect fill="none" id="canvas_background" height="402" width="582" y="-1" x="-1"/>
 </g>
 <g>
  <title>Layer 1</title>
  <path stroke="null" id="svg_2" fill="#ffffff" d="m44.152736,88.270978c13.919668,0 26.645172,-6.586275 34.682815,-17.762427l7.105277,7.106808l3.680475,-3.680475l-18.299801,-18.301332c1.67183,-2.233699 2.798631,-4.795029 3.29773,-7.530889l6.987392,0c-0.215868,3.176783 -0.816012,6.293858 -1.818804,9.296109l4.93741,1.647334c1.4529,-4.351044 2.192363,-8.908771 2.192363,-13.54764c0,-23.583212 -19.184707,-42.76945 -42.766389,-42.76945c-23.583212,0 -42.772512,19.184707 -42.772512,42.76945s19.190831,42.772512 42.774043,42.772512zm25.473972,-56.242072c-2.29647,-2.29647 -5.107348,-3.877972 -8.163184,-4.683267c4.554665,-0.981358 8.884276,-2.35924 12.935248,-4.086185c4.10915,5.575828 6.710284,12.321325 7.212446,19.636346l-6.794488,0c-0.430205,-4.103026 -2.233699,-7.90751 -5.190021,-10.866894zm-12.792867,25.685247c-3.444704,0 -6.679665,-1.341138 -9.116984,-3.778458c-2.434258,-2.434258 -3.773865,-5.669218 -3.773865,-9.110861c0,-3.440112 1.342669,-6.676603 3.776927,-9.112392s5.669218,-3.775396 9.113922,-3.775396c3.441642,0 6.676603,1.339607 9.110861,3.773865s3.773865,5.67228 3.776927,9.115453c0,3.443173 -1.342669,6.678134 -3.776927,9.112392s-5.669218,3.775396 -9.110861,3.775396zm-12.681105,25.351494c-0.73487,0 -1.462086,-0.027558 -2.186239,-0.068894c-2.96857,-4.354106 -5.352305,-9.538004 -7.071595,-15.262337c2.855277,-0.301603 5.76567,-0.471542 8.715868,-0.471542c2.838436,0 5.637067,0.14085 8.37599,0.417957c-1.7346,5.796289 -4.138238,10.995497 -7.12518,15.36032c-0.235771,0.006124 -0.473073,0.024496 -0.708844,0.024496zm-0.540436,-21.008104c-3.400306,0 -6.748559,0.215868 -10.035572,0.595551c-1.022694,-4.632745 -1.638148,-9.527287 -1.79737,-14.550432l7.262968,0c0.655259,3.582493 2.362302,6.881754 4.994056,9.513508c2.57817,2.57817 5.794758,4.279088 9.293047,4.961905c-0.003062,0.009186 -0.006124,0.018372 -0.006124,0.029089c-3.178314,-0.355187 -6.419398,-0.549622 -9.711005,-0.549622zm0.427143,-30.025575c-2.957853,2.959384 -4.759816,6.762338 -5.194614,10.865363l-7.065472,0c0.15616,-4.917507 0.756304,-9.724783 1.752972,-14.291696c3.29773,0.382745 6.662824,0.601675 10.079971,0.601675c1.440652,0 2.870587,-0.039805 4.294398,-0.107169c-1.397785,0.793048 -2.700648,1.76522 -3.867255,2.931826zm-17.465417,10.865363l-19.887427,0c0.492975,-7.164985 3.002251,-13.780349 6.967489,-19.287283c4.583753,1.878512 9.530349,3.296199 14.723432,4.233159c-1.03188,4.82871 -1.648865,9.893191 -1.803494,15.054124zm0.003062,5.205331c0.15616,5.265039 0.783862,10.415255 1.841769,15.309798c-5.151747,0.926243 -10.064661,2.32862 -14.622388,4.179575c-4.049441,-5.54674 -6.610771,-12.237121 -7.111401,-19.489372l19.89202,0zm-9.242525,23.668947c3.87491,-1.449838 8.028458,-2.541426 12.348883,-3.29773c1.411563,4.89148 3.285483,9.441552 5.555926,13.513958c-6.913905,-1.688671 -13.07916,-5.291066 -17.904808,-10.216228zm34.078078,10.600504c2.377612,-4.176513 4.326549,-8.870497 5.791696,-13.962535c4.749099,0.808357 9.28233,2.036203 13.483339,3.680475c-5.258915,5.278818 -11.933987,8.858249 -19.275035,10.28206zm22.848342,-14.434077c-4.885356,-2.068354 -10.190201,-3.603926 -15.78287,-4.585284c0.035213,-0.169939 0.065832,-0.349063 0.101045,-0.520533c3.306916,-0.313851 6.413274,-1.537104 9.060338,-3.519722l7.460464,7.463526c-0.270983,0.396524 -0.554215,0.779269 -0.838977,1.162014zm-3.411023,-48.826006c-4.228566,1.668768 -8.790886,2.908862 -13.572136,3.729467c-1.471272,-5.176243 -3.450828,-9.95443 -5.857529,-14.192182c7.518642,1.478926 14.241174,5.211455 19.429664,10.462716zm-25.966948,-11.156249c3.017561,4.416877 5.439571,9.727845 7.178764,15.615994c-2.76648,0.283231 -5.588076,0.428674 -8.451008,0.428674c-2.974694,0 -5.904989,-0.169939 -8.778638,-0.479197c1.722352,-5.822316 4.122928,-11.11032 7.12518,-15.51648c0.727215,-0.041336 1.455962,-0.068894 2.195425,-0.068894c0.241895,0.001531 0.485321,0.01531 0.730277,0.019903zm-9.655889,1.060969c-2.299532,4.132114 -4.178044,8.784762 -5.5942,13.765039c-4.374009,-0.768552 -8.570425,-1.880043 -12.480547,-3.35897c4.848613,-5.021614 11.081231,-8.694434 18.074747,-10.406069z"/>
 </g>
</svg>